PathFileType	4	(X/Y/Z)	C:\Users\Basilio\Documents\Thesis Gigler\squatting_fais\c3dfiles\077\SLS_back_pre3\markers_experimental.trc
DataRate	CameraRate	NumFrames	NumMarkers	Units	OrigDataRate	OrigDataStartFrame	OrigNumFrames
200.000000	200.000000	4	60	mm	200.000000	1227	1636
Frame#	Time	FHD			LBHD			RBHD			C7			T10			CLAV			LSHO			LUUPA			LMUPA			LDUPA			LLEP			LMEP			LRAD			LUL			LRFIN			RSHO			RUPA1			RMUPA			RDUPA			RLEP			RMEP			RRAD			RUL			RUFIN			LASI			RASI			USACR			LSACR			RSACR			LTHI1			LTHI2			LTHI3			LTHI4			LLFC			LMFC			LTIB1			LTIB2			LTIB3			LTIB4			LLMAL			LHEE			LMT1			LMT2			LMT5			RTHI			RTHI2			RTHI3			RTHI4			RLFC			RMFC			RTIB1			RTIB2			RTIB3			RTIB4			RLMAL			RMMAL			RHEE			RMT1			RMT2			RMT5			
		X1	Y1	Z1	X2	Y2	Z2	X3	Y3	Z3	X4	Y4	Z4	X5	Y5	Z5	X6	Y6	Z6	X7	Y7	Z7	X8	Y8	Z8	X9	Y9	Z9	X10	Y10	Z10	X11	Y11	Z11	X12	Y12	Z12	X13	Y13	Z13	X14	Y14	Z14	X15	Y15	Z15	X16	Y16	Z16	X17	Y17	Z17	X18	Y18	Z18	X19	Y19	Z19	X20	Y20	Z20	X21	Y21	Z21	X22	Y22	Z22	X23	Y23	Z23	X24	Y24	Z24	X25	Y25	Z25	X26	Y26	Z26	X27	Y27	Z27	X28	Y28	Z28	X29	Y29	Z29	X30	Y30	Z30	X31	Y31	Z31	X32	Y32	Z32	X33	Y33	Z33	X34	Y34	Z34	X35	Y35	Z35	X36	Y36	Z36	X37	Y37	Z37	X38	Y38	Z38	X39	Y39	Z39	X40	Y40	Z40	X41	Y41	Z41	X42	Y42	Z42	X43	Y43	Z43	X44	Y44	Z44	X45	Y45	Z45	X46	Y46	Z46	X47	Y47	Z47	X48	Y48	Z48	X49	Y49	Z49	X50	Y50	Z50	X51	Y51	Z51	X52	Y52	Z52	X53	Y53	Z53	X54	Y54	Z54	X55	Y55	Z55	X56	Y56	Z56	X57	Y57	Z57	X58	Y58	Z58	X59	Y59	Z59	X60	Y60	Z60	

1228	6.135	-204.5722198486329	1839.694580078125	-1092.7822265625	-353.7095031738282	1744.358154296875	-1163.255249023438	-359.0348205566407	1737.251831054688	-1017.003112792969	-402.0473632812501	1601.5625	-1103.541015625	-451.873992919922	1278.852172851563	-1067.688598632813	-242.0532226562501	1547.219116210938	-1091.527221679688	-265.4755554199219	1580.185424804688	-1263.047973632813	-104.7644882202149	1528.379272460938	-1369.205322265625	-73.98072052001955	1554.552368164063	-1340.1708984375	-36.38526153564454	1522.778442382813	-1376.145263671875	27.80310249328614	1528.1962890625	-1372.223999023438	31.61382484436036	1456.085327148438	-1345.68701171875	320.9793090820313	1550.902221679688	-1251.46240234375	327.5971984863282	1549.802124023438	-1331.830932617188	420.7505493164064	1566.355834960938	-1259.925537109375	-272.4522705078126	1600.980346679688	-936.1259765625002	-133.2958679199219	1559.266845703125	-806.820983886719	-101.5902862548828	1581.453247070313	-837.1507568359377	-64.1888885498047	1554.736450195313	-795.9883422851565	2.146458864212037	1555.740478515625	-799.608337402344	4.293321609497071	1480.519165039063	-823.1909790039065	290.2606811523438	1562.348754882813	-880.9214477539065	299.7464904785157	1571.355834960938	-803.162780761719	386.3085327148439	1582.7705078125	-879.884216308594	-298.6672668457032	1059.26171875	-1189.447998046875	-309.4046630859376	1077.594604492188	-917.155456542969	-481.5301208496095	1186.06884765625	-1059.778076171875	-492.5591430664064	1159.015747070313	-1089.188354492188	-497.3456420898439	1157.058715820313	-1033.197998046875	-365.8437194824219	841.8731079101565	-1237.194213867188	-333.4205322265626	765.8605346679689	-1227.534545898438	-284.5166625976563	770.8974609375002	-1222.780639648438	-357.7835693359376	714.8078002929689	-1204.693115234375	-321.1365966796876	572.8836669921876	-1168.802612304688	-379.2070922851563	553.6759643554689	-982.7659912109377	-283.8522949218751	356.5926818847657	-1079.464233398438	-314.7374877929688	305.8304443359376	-1145.904541015625	-282.5823669433594	306.1229858398438	-1111.24169921875	-288.5880737304688	230.7694854736329	-1071.843872070313	-345.1430358886719	105.42236328125	-1107.684936523438	-398.6963500976564	78.39039611816408	-1048.314208984375	-188.9318542480469	62.81436920166017	-1023.397399902344	-183.0337524414063	61.84138488769533	-1066.004028320313	-316.6788940429688	128.879379272461	-1024.664794921875	-261.8072204589844	794.9006958007815	-823.5935668945315	-197.8362731933594	768.205749511719	-818.762634277344	-169.4600830078125	785.3198852539065	-822.1259765625002	-187.2586517333985	686.6776123046876	-829.5654907226565	-185.5760650634766	648.3425292968751	-840.2764282226565	-144.5865478515625	633.4155883789064	-961.9017333984377	-268.7359008789063	563.5543212890626	-906.4517822265627	-368.8489685058594	598.0195312500001	-897.069519042969	-353.8866577148438	560.5570068359376	-920.9050903320315	-379.6239624023438	551.2171630859376	-972.3389282226565	-571.9348754882814	572.2474365234376	-990.2049560546877	-532.4582519531251	564.8392333984376	-1074.5224609375	-579.5471801757814	648.1934814453126	-1036.65869140625	-621.8363647460939	439.9266052246095	-1107.566162109375	-633.4332275390626	429.5802612304689	-1069.72900390625	-669.0787353515626	439.3731994628907	-1029.83642578125	
1229	6.140000000000001	-204.8858947753907	1839.462768554688	-1092.7333984375	-354.2637329101563	1744.922729492188	-1163.284057617188	-359.5087280273438	1738.346801757813	-1017.202209472656	-402.7926330566407	1601.8046875	-1103.829223632813	-451.9904174804689	1278.849731445313	-1068.067993164063	-242.5989227294922	1547.736206054688	-1091.72802734375	-265.5747985839844	1580.62451171875	-1263.26416015625	-105.1502685546875	1528.867065429688	-1369.244140625	-74.61140441894533	1555.066650390625	-1340.254028320313	-36.78605270385743	1523.395263671875	-1376.22021484375	27.46002388000489	1528.830810546875	-1372.122680664063	31.27946853637696	1456.868774414063	-1345.58740234375	320.5004882812501	1551.754516601563	-1251.548706054688	326.8003845214844	1550.725952148438	-1332.003540039063	420.5357055664064	1566.37890625	-1260.184814453125	-273.3496093750001	1601.38671875	-936.3090820312502	-134.1475219726563	1559.95263671875	-806.9490356445315	-102.4632949829102	1582.211547851563	-837.390075683594	-64.9567337036133	1555.595581054688	-796.268737792969	1.162440776824951	1556.654174804688	-798.1934814453127	3.666259527206422	1481.645385742188	-823.3383789062502	289.4242248535157	1563.922241210938	-880.7624511718752	299.4989929199219	1573.23583984375	-802.5244750976565	385.3447570800782	1584.475952148438	-879.9948730468752	-298.0593566894532	1059.30810546875	-1189.517944335938	-308.9190673828126	1078.325927734375	-917.210632324219	-481.371307373047	1186.000244140625	-1060.097534179688	-492.1061401367189	1158.828979492188	-1089.489990234375	-497.3133850097657	1157.057983398438	-1033.452758789063	-365.7047119140626	842.0402832031252	-1237.020141601563	-333.7016296386719	766.1641235351564	-1227.193115234375	-284.7265930175782	770.870544433594	-1222.702270507813	-358.3395385742188	715.0464477539064	-1204.468994140625	-321.6796875000001	572.7976074218751	-1168.529907226563	-376.3391418457032	554.3449096679689	-985.007995605469	-284.5622253417969	357.0535278320313	-1079.557250976563	-315.0597839355469	306.2392272949219	-1145.891723632813	-283.0751342773438	306.3552246093751	-1111.497680664063	-289.1979064941407	231.2172088623047	-1072.3310546875	-345.1713256835938	105.4565353393555	-1107.668212890625	-398.702362060547	78.47483825683595	-1048.242309570313	-188.8768463134766	62.63295745849611	-1023.468078613281	-183.056381225586	61.63588333129884	-1065.9951171875	-316.6192626953126	128.8603515625	-1024.698608398438	-260.6734924316407	796.0170898437502	-823.1374511718752	-196.5770568847657	769.3500976562502	-818.2198486328127	-168.1607971191407	786.6746826171877	-821.7335205078127	-185.9561462402344	687.7758178710939	-828.9235839843752	-184.0821990966797	649.6828002929689	-839.494812011719	-142.547119140625	634.0884399414064	-960.9715576171877	-267.3422546386719	564.4728393554689	-905.7070922851565	-367.0720520019532	599.2766723632814	-896.0305175781252	-352.4963684082032	561.6451416015626	-919.9790649414065	-378.0219421386719	552.2697143554689	-971.4776611328127	-570.4205932617189	572.8925781250001	-989.094909667969	-531.2164306640626	565.7671508789064	-1073.775512695313	-577.7653198242189	648.8908691406251	-1035.453735351563	-619.7807617187501	441.0498657226564	-1105.951049804688	-632.0795898437501	430.5044250488282	-1069.232299804688	-667.4638671875001	440.2108154296876	-1028.766357421875	
1230	6.145	-205.3065032958985	1839.45654296875	-1092.590087890625	-354.6759948730469	1745.421875	-1163.43310546875	-360.1327514648438	1738.795043945313	-1017.362182617188	-403.5884399414064	1602.067626953125	-1104.152587890625	-452.1584777832032	1278.7197265625	-1068.4697265625	-243.1769104003907	1548.379516601563	-1091.798217773438	-266.3203735351563	1580.817749023438	-1263.517700195313	-105.264030456543	1529.173706054688	-1369.267456054688	-75.11663818359376	1555.650024414063	-1340.401123046875	-37.41903305053712	1524.025024414063	-1376.305786132813	27.04620933532716	1529.366088867188	-1372.021240234375	30.90654754638673	1457.6201171875	-1345.502685546875	319.9546813964844	1552.689331054688	-1251.637451171875	326.1578063964844	1551.587158203125	-1331.953735351563	420.0852050781251	1567.361572265625	-1260.247436523438	-274.0859375000001	1601.929077148438	-936.4208984375002	-135.049789428711	1560.6201171875	-807.1489868164065	-103.3784561157227	1582.927490234375	-837.5894775390627	-65.83515930175783	1556.382934570313	-796.4296875000002	0.3358429968357087	1557.523071289063	-798.2006835937502	2.953545570373536	1482.346313476563	-823.376892089844	288.5428771972657	1565.233642578125	-880.6436767578127	298.4534301757813	1574.561645507813	-802.7234497070315	384.6926574707032	1586.090942382813	-879.6591796875002	-297.4721069335938	1059.301513671875	-1189.627807617188	-308.4854736328126	1078.939331054688	-917.0139770507815	-481.2138671875001	1185.922485351563	-1060.342163085938	-491.7903442382814	1158.652587890625	-1089.738891601563	-497.0440673828126	1156.926147460938	-1033.735717773438	-365.7385864257813	842.2581176757815	-1236.953125	-333.8222045898438	766.2605590820314	-1227.134155273438	-284.8183288574219	770.8597412109377	-1222.643920898438	-358.6127929687501	715.1838378906251	-1204.267944335938	-322.2743835449219	572.7871704101564	-1168.379272460938	-373.5116271972657	554.9613647460939	-987.3907470703127	-285.0122070312501	357.0136718750001	-1079.738647460938	-315.5849914550782	306.1722106933594	-1145.934204101563	-283.4226989746094	306.2091979980469	-1111.630249023438	-288.7921752929688	231.7612609863282	-1071.95947265625	-345.3039855957032	105.4144973754883	-1107.653442382813	-398.6530761718751	78.4823684692383	-1048.307983398438	-188.8514709472657	62.52499771118165	-1023.526794433594	-182.8395080566407	61.30288696289064	-1065.95751953125	-316.5744323730469	128.7723388671875	-1024.808227539063	-259.3666076660157	796.9365234375002	-822.5008544921877	-195.4712371826172	770.3381958007815	-817.845642089844	-166.8808746337891	787.866638183594	-821.1626586914065	-184.2118072509766	689.1024169921876	-828.2297973632815	-182.4338531494141	650.8521728515626	-838.6777343750002	-141.3311614990235	635.2869262695314	-960.799743652344	-265.5136718750001	565.6704711914064	-904.5982055664065	-365.4582824707032	600.2145996093751	-895.1281738281252	-350.6014709472657	562.8623657226564	-919.0520629882815	-376.8957519531251	553.0071411132814	-969.085632324219	-568.8901977539064	573.6267700195314	-988.0691528320315	-529.5367431640626	566.7064819335939	-1072.821166992188	-576.5764770507814	649.5429687500001	-1034.680786132813	-618.1824340820314	441.1097106933595	-1105.214233398438	-630.1690063476564	431.2146301269532	-1067.521362304688	-665.9212646484376	440.6750793457032	-1027.6943359375	
1231	6.15	-205.9880065917969	1840.497436523438	-1092.74462890625	-355.3003234863282	1746.05224609375	-1163.665649414063	-360.6799621582032	1739.203979492188	-1017.488525390625	-403.8338623046876	1602.25146484375	-1104.348022460938	-452.1917724609376	1278.753784179688	-1068.84228515625	-243.7879943847657	1548.964599609375	-1092.078125	-267.1539916992188	1581.259643554688	-1263.8232421875	-105.7112426757813	1529.461791992188	-1369.351928710938	-75.59431457519533	1556.137084960938	-1340.481689453125	-37.86838912963868	1524.449340820313	-1376.368896484375	26.46440505981446	1530.132690429688	-1372.1318359375	30.22198104858399	1458.245971679688	-1345.817138671875	319.5399780273438	1553.381958007813	-1251.740600585938	325.9831237792969	1552.45361328125	-1332.02294921875	419.1979064941407	1568.13525390625	-1260.13037109375	-274.8193054199219	1602.296875	-936.5715942382815	-135.825439453125	1561.198364257813	-807.2709960937502	-104.1814117431641	1583.6552734375	-837.6067504882815	-66.6411819458008	1556.944458007813	-796.4158325195315	-0.1721094846725464	1558.633911132813	-799.7696533203127	2.471567869186402	1483.470825195313	-823.3835449218752	287.7709045410157	1566.836059570313	-880.847351074219	297.6570739746094	1576.182495117188	-802.4758911132815	383.5760803222657	1587.69140625	-879.8264160156252	-296.8710632324219	1059.037109375	-1189.681030273438	-308.0987243652344	1079.2783203125	-916.9221191406252	-481.1538085937501	1185.69287109375	-1060.493286132813	-491.908416748047	1158.593017578125	-1089.806884765625	-496.8604431152345	1156.805297851563	-1033.940307617188	-365.5018920898438	842.4494628906252	-1236.796752929688	-333.9386291503907	766.2554321289064	-1226.998046875	-284.9212341308594	770.7297363281252	-1222.596313476563	-358.7686767578126	715.3844604492189	-1204.105102539063	-323.0533752441407	572.8228149414064	-1168.412475585938	-370.7639160156251	555.4216918945314	-989.901550292969	-285.2594299316407	357.2124328613282	-1079.859741210938	-315.7956542968751	306.0875854492188	-1146.024658203125	-283.8840026855469	306.7527160644532	-1111.716674804688	-288.9653320312501	231.8875122070313	-1072.068603515625	-345.2839660644532	105.339584350586	-1107.667724609375	-398.6019897460939	78.47075653076173	-1048.293579101563	-188.8127899169922	62.47490692138673	-1023.570434570313	-182.8920288085938	61.23316955566408	-1066.063232421875	-316.5543212890626	128.7865905761719	-1024.854614257813	-258.1654357910157	798.1171875000002	-822.102478027344	-194.0242462158204	771.7390747070315	-817.060241699219	-165.5756378173828	789.1611328125002	-820.6792602539065	-182.8505249023438	690.1281738281251	-827.5452880859377	-180.9322509765625	652.0411376953126	-838.0430297851565	-139.685302734375	636.6837768554689	-960.1777343750002	-263.9394531250001	566.6475219726564	-903.808776855469	-363.8876037597657	601.1065673828126	-894.0692138671877	-348.8973693847657	563.7879638671876	-917.9588623046877	-375.3494262695313	553.9082641601564	-967.9992675781252	-567.1525268554689	574.2681274414064	-986.8472290039065	-527.8916625976564	567.1991577148439	-1071.66650390625	-574.8265991210939	650.0054321289064	-1033.476928710938	-616.1105346679689	441.6550903320314	-1103.838256835938	-628.6293945312501	431.4046020507814	-1067.065063476563	-664.3558349609376	441.1210937500001	-1026.463745117188	
